<svg xmlns="http://www.w3.org/2000/svg" xmlns:xlink="http://www.w3.org/1999/xlink" width="300" zoomAndPan="magnify" viewBox="0 0 224.87999 74.999997" height="100" preserveAspectRatio="xMidYMid meet" version="1.0"><defs><g/><clipPath id="cf336aad36"><path d="M 45.398438 44.605469 L 57.847656 44.605469 L 57.847656 57.058594 L 45.398438 57.058594 Z M 45.398438 44.605469 " clip-rule="nonzero"/></clipPath><clipPath id="41c6b83a79"><path d="M 51.621094 44.605469 C 48.183594 44.605469 45.398438 47.394531 45.398438 50.832031 C 45.398438 54.269531 48.183594 57.058594 51.621094 57.058594 C 55.0625 57.058594 57.847656 54.269531 57.847656 50.832031 C 57.847656 47.394531 55.0625 44.605469 51.621094 44.605469 Z M 51.621094 44.605469 " clip-rule="nonzero"/></clipPath><clipPath id="e789891250"><path d="M 45.398438 44.347656 L 58.140625 44.347656 L 58.140625 57.089844 L 45.398438 57.089844 Z M 45.398438 44.347656 " clip-rule="nonzero"/></clipPath></defs><g fill="#ffffff" fill-opacity="1"><g transform="translate(3.017911, 51.889835)"><g><path d="M 15.34375 0 C 13.238281 0.03125 11.164062 0.046875 9.125 0.046875 C 7.09375 0.046875 5.039062 0.03125 2.96875 0 L 2.96875 -32.984375 C 5.1875 -33.015625 7.285156 -33.03125 9.265625 -33.03125 C 11.242188 -33.03125 13.285156 -33.015625 15.390625 -32.984375 C 18.566406 -32.953125 21.328125 -32.253906 23.671875 -30.890625 C 26.015625 -29.523438 27.820312 -27.640625 29.09375 -25.234375 C 30.363281 -22.835938 31 -20.066406 31 -16.921875 C 31 -14.578125 30.707031 -12.390625 30.125 -10.359375 C 29.539062 -8.335938 28.625 -6.554688 27.375 -5.015625 C 26.132812 -3.472656 24.523438 -2.257812 22.546875 -1.375 C 20.566406 -0.488281 18.164062 -0.03125 15.34375 0 Z M 8.015625 -4.71875 C 9.210938 -4.71875 10.375 -4.71875 11.5 -4.71875 C 12.625 -4.71875 13.769531 -4.71875 14.9375 -4.71875 C 17.101562 -4.78125 18.890625 -5.15625 20.296875 -5.84375 C 21.703125 -6.539062 22.8125 -7.460938 23.625 -8.609375 C 24.4375 -9.765625 25.003906 -11.054688 25.328125 -12.484375 C 25.660156 -13.910156 25.828125 -15.390625 25.828125 -16.921875 C 25.828125 -19.347656 25.363281 -21.398438 24.4375 -23.078125 C 23.507812 -24.765625 22.234375 -26.054688 20.609375 -26.953125 C 18.992188 -27.859375 17.148438 -28.335938 15.078125 -28.390625 C 13.878906 -28.390625 12.703125 -28.390625 11.546875 -28.390625 C 10.390625 -28.390625 9.210938 -28.390625 8.015625 -28.390625 Z M 8.015625 -4.71875 "/></g></g></g><g fill="#ffffff" fill-opacity="1"><g transform="translate(36.306906, 51.889835)"><g/></g></g><g fill="#ffffff" fill-opacity="1"><g transform="translate(45.303044, 51.889835)"><g/></g></g><g fill="#ffffff" fill-opacity="1"><g transform="translate(54.299182, 51.889835)"><g/></g></g><g fill="#ffffff" fill-opacity="1"><g transform="translate(63.300346, 51.889835)"><g><path d="M 26.5 -32.984375 L 26.5 -28.171875 L 16.609375 -28.171875 L 16.609375 0 L 11.296875 0 L 11.296875 -28.171875 L 1.390625 -28.171875 L 1.390625 -32.984375 Z M 26.5 -32.984375 "/></g></g></g><g fill="#ffffff" fill-opacity="1"><g transform="translate(91.188393, 51.889835)"><g><path d="M 13.640625 -21.28125 L 12.59375 -16.875 C 12.03125 -17.019531 11.515625 -17.125 11.046875 -17.1875 C 10.578125 -17.25 10.101562 -17.28125 9.625 -17.28125 C 9.144531 -17.28125 8.695312 -17.253906 8.28125 -17.203125 C 7.863281 -17.160156 7.441406 -17.066406 7.015625 -16.921875 L 7.015625 0 L 2.4375 0 L 2.4375 -20.296875 C 3.425781 -20.773438 4.507812 -21.132812 5.6875 -21.375 C 6.875 -21.613281 8.113281 -21.734375 9.40625 -21.734375 C 10.007812 -21.734375 10.707031 -21.703125 11.5 -21.640625 C 12.289062 -21.585938 13.003906 -21.46875 13.640625 -21.28125 Z M 13.640625 -21.28125 "/></g></g></g><g fill="#ffffff" fill-opacity="1"><g transform="translate(106.032026, 51.889835)"><g><path d="M 3.234375 -30.0625 L 8.5 -30.0625 L 8.5 -24.9375 L 3.234375 -24.9375 Z M 8.421875 -21.15625 L 8.421875 0 L 4 0 L 4 -17.015625 L 1.671875 -17.015625 L 2.5625 -21.15625 Z M 8.421875 -21.15625 "/></g></g></g><g fill="#ffffff" fill-opacity="1"><g transform="translate(117.41215, 51.889835)"><g><path d="M 13.5 -21.6875 C 15.71875 -21.6875 17.644531 -21.226562 19.28125 -20.3125 C 20.914062 -19.394531 22.164062 -18.101562 23.03125 -16.4375 C 23.90625 -14.78125 24.34375 -12.828125 24.34375 -10.578125 C 24.34375 -8.597656 23.90625 -6.757812 23.03125 -5.0625 C 22.164062 -3.363281 20.921875 -2 19.296875 -0.96875 C 17.679688 0.0625 15.75 0.578125 13.5 0.578125 C 12.6875 0.578125 11.828125 0.472656 10.921875 0.265625 C 10.023438 0.0546875 9.21875 -0.25 8.5 -0.65625 C 7.78125 -1.0625 7.269531 -1.53125 6.96875 -2.0625 L 7.0625 -0.140625 L 7.0625 9.90625 L 2.515625 9.90625 L 2.515625 -21.15625 L 7.25 -21.15625 L 7.25 -20.703125 L 7.15625 -18.90625 C 7.664062 -19.707031 8.539062 -20.367188 9.78125 -20.890625 C 11.03125 -21.421875 12.269531 -21.6875 13.5 -21.6875 Z M 13.453125 -3.828125 C 15.285156 -3.828125 16.78125 -4.46875 17.9375 -5.75 C 19.09375 -7.039062 19.671875 -8.648438 19.671875 -10.578125 C 19.671875 -12.492188 19.09375 -14.085938 17.9375 -15.359375 C 16.78125 -16.640625 15.285156 -17.28125 13.453125 -17.28125 C 12.160156 -17.28125 11.023438 -16.976562 10.046875 -16.375 C 9.078125 -15.78125 8.320312 -14.976562 7.78125 -13.96875 C 7.238281 -12.96875 6.96875 -11.835938 6.96875 -10.578125 C 6.96875 -9.347656 7.238281 -8.222656 7.78125 -7.203125 C 8.320312 -6.179688 9.078125 -5.363281 10.046875 -4.75 C 11.023438 -4.132812 12.160156 -3.828125 13.453125 -3.828125 Z M 13.453125 -3.828125 "/></g></g></g><g fill="#ffffff" fill-opacity="1"><g transform="translate(143.635906, 51.889835)"><g><path d="M 12.921875 0.765625 C 10.671875 0.765625 8.703125 0.285156 7.015625 -0.671875 C 5.335938 -1.628906 4.039062 -2.957031 3.125 -4.65625 C 2.207031 -6.351562 1.75 -8.296875 1.75 -10.484375 C 1.75 -12.703125 2.222656 -14.648438 3.171875 -16.328125 C 4.117188 -18.015625 5.421875 -19.328125 7.078125 -20.265625 C 8.742188 -21.210938 10.691406 -21.6875 12.921875 -21.6875 C 15.109375 -21.6875 17.039062 -21.210938 18.71875 -20.265625 C 20.394531 -19.328125 21.695312 -18.015625 22.625 -16.328125 C 23.5625 -14.648438 24.03125 -12.703125 24.03125 -10.484375 C 24.03125 -8.296875 23.570312 -6.351562 22.65625 -4.65625 C 21.738281 -2.957031 20.445312 -1.628906 18.78125 -0.671875 C 17.125 0.285156 15.171875 0.765625 12.921875 0.765625 Z M 12.921875 -17.375 C 11.742188 -17.375 10.648438 -17.101562 9.640625 -16.5625 C 8.640625 -16.019531 7.832031 -15.226562 7.21875 -14.1875 C 6.601562 -13.15625 6.296875 -11.921875 6.296875 -10.484375 C 6.296875 -8.265625 6.929688 -6.5625 8.203125 -5.375 C 9.484375 -4.1875 11.054688 -3.59375 12.921875 -3.59375 C 14.742188 -3.59375 16.300781 -4.1875 17.59375 -5.375 C 18.882812 -6.5625 19.53125 -8.265625 19.53125 -10.484375 C 19.53125 -11.921875 19.222656 -13.15625 18.609375 -14.1875 C 17.992188 -15.226562 17.179688 -16.019531 16.171875 -16.5625 C 15.171875 -17.101562 14.085938 -17.375 12.921875 -17.375 Z M 12.921875 -17.375 "/></g></g></g><g fill="#ffffff" fill-opacity="1"><g transform="translate(169.409858, 51.889835)"><g><path d="M 12.734375 0.578125 C 10.515625 0.578125 8.59375 0.113281 6.96875 -0.8125 C 5.351562 -1.738281 4.101562 -3.035156 3.21875 -4.703125 C 2.332031 -6.367188 1.890625 -8.3125 1.890625 -10.53125 C 1.890625 -12.507812 2.332031 -14.34375 3.21875 -16.03125 C 4.101562 -17.726562 5.351562 -19.09375 6.96875 -20.125 C 8.59375 -21.164062 10.515625 -21.6875 12.734375 -21.6875 C 13.546875 -21.6875 14.398438 -21.582031 15.296875 -21.375 C 16.203125 -21.164062 17.019531 -20.863281 17.75 -20.46875 C 18.488281 -20.082031 19.007812 -19.617188 19.3125 -19.078125 L 19.21875 -21.015625 L 19.21875 -32.984375 L 23.71875 -32.984375 L 23.71875 0 L 19.03125 0 L 19.03125 -0.40625 L 19.078125 -2.203125 C 18.597656 -1.390625 17.726562 -0.722656 16.46875 -0.203125 C 15.207031 0.316406 13.960938 0.578125 12.734375 0.578125 Z M 12.828125 -17.28125 C 10.960938 -17.28125 9.457031 -16.640625 8.3125 -15.359375 C 7.175781 -14.085938 6.609375 -12.476562 6.609375 -10.53125 C 6.609375 -8.613281 7.175781 -7.015625 8.3125 -5.734375 C 9.457031 -4.460938 10.960938 -3.828125 12.828125 -3.828125 C 14.085938 -3.828125 15.203125 -4.125 16.171875 -4.71875 C 17.148438 -5.320312 17.914062 -6.132812 18.46875 -7.15625 C 19.03125 -8.175781 19.3125 -9.300781 19.3125 -10.53125 C 19.3125 -11.789062 19.03125 -12.929688 18.46875 -13.953125 C 17.914062 -14.972656 17.148438 -15.78125 16.171875 -16.375 C 15.203125 -16.976562 14.085938 -17.28125 12.828125 -17.28125 Z M 12.828125 -17.28125 "/></g></g></g><g fill="#ffffff" fill-opacity="1"><g transform="translate(195.633615, 51.889835)"><g><path d="M 12.921875 0.765625 C 10.671875 0.765625 8.703125 0.285156 7.015625 -0.671875 C 5.335938 -1.628906 4.039062 -2.957031 3.125 -4.65625 C 2.207031 -6.351562 1.75 -8.296875 1.75 -10.484375 C 1.75 -12.703125 2.222656 -14.648438 3.171875 -16.328125 C 4.117188 -18.015625 5.421875 -19.328125 7.078125 -20.265625 C 8.742188 -21.210938 10.691406 -21.6875 12.921875 -21.6875 C 15.109375 -21.6875 17.039062 -21.210938 18.71875 -20.265625 C 20.394531 -19.328125 21.695312 -18.015625 22.625 -16.328125 C 23.5625 -14.648438 24.03125 -12.703125 24.03125 -10.484375 C 24.03125 -8.296875 23.570312 -6.351562 22.65625 -4.65625 C 21.738281 -2.957031 20.445312 -1.628906 18.78125 -0.671875 C 17.125 0.285156 15.171875 0.765625 12.921875 0.765625 Z M 12.921875 -17.375 C 11.742188 -17.375 10.648438 -17.101562 9.640625 -16.5625 C 8.640625 -16.019531 7.832031 -15.226562 7.21875 -14.1875 C 6.601562 -13.15625 6.296875 -11.921875 6.296875 -10.484375 C 6.296875 -8.265625 6.929688 -6.5625 8.203125 -5.375 C 9.484375 -4.1875 11.054688 -3.59375 12.921875 -3.59375 C 14.742188 -3.59375 16.300781 -4.1875 17.59375 -5.375 C 18.882812 -6.5625 19.53125 -8.265625 19.53125 -10.484375 C 19.53125 -11.921875 19.222656 -13.15625 18.609375 -14.1875 C 17.992188 -15.226562 17.179688 -16.019531 16.171875 -16.5625 C 15.171875 -17.101562 14.085938 -17.375 12.921875 -17.375 Z M 12.921875 -17.375 "/></g></g></g><g clip-path="url(#cf336aad36)"><g clip-path="url(#41c6b83a79)"><path fill="#ff7948" d="M 45.398438 44.605469 L 57.847656 44.605469 L 57.847656 57.058594 L 45.398438 57.058594 Z M 45.398438 44.605469 " fill-opacity="1" fill-rule="nonzero"/></g></g><g clip-path="url(#e789891250)"><path fill="#000000" d="M 51.769531 44.347656 C 48.253906 44.347656 45.398438 47.203125 45.398438 50.71875 C 45.398438 54.234375 48.253906 57.089844 51.769531 57.089844 C 55.285156 57.089844 58.140625 54.234375 58.140625 50.71875 C 58.140625 47.203125 55.285156 44.347656 51.769531 44.347656 M 51.769531 44.925781 C 54.972656 44.925781 57.5625 47.515625 57.5625 50.71875 C 57.5625 53.921875 54.972656 56.511719 51.769531 56.511719 C 48.566406 56.511719 45.976562 53.921875 45.976562 50.71875 C 45.976562 47.515625 48.566406 44.925781 51.769531 44.925781 M 49.667969 49.125 C 49.410156 49.125 49.1875 49.21875 49.003906 49.402344 C 48.820312 49.585938 48.726562 49.808594 48.726562 50.066406 C 48.726562 50.328125 48.820312 50.546875 49.003906 50.730469 C 49.1875 50.914062 49.410156 51.007812 49.667969 51.007812 C 49.929688 51.007812 50.152344 50.914062 50.335938 50.730469 C 50.519531 50.546875 50.609375 50.328125 50.609375 50.066406 C 50.609375 49.808594 50.519531 49.585938 50.335938 49.402344 C 50.152344 49.21875 49.929688 49.125 49.667969 49.125 M 53.867188 49.125 C 53.609375 49.125 53.386719 49.21875 53.203125 49.402344 C 53.019531 49.585938 52.925781 49.808594 52.925781 50.066406 C 52.925781 50.328125 53.019531 50.546875 53.203125 50.730469 C 53.386719 50.914062 53.609375 51.007812 53.867188 51.007812 C 54.128906 51.007812 54.351562 50.914062 54.535156 50.730469 C 54.71875 50.546875 54.808594 50.328125 54.808594 50.066406 C 54.808594 49.808594 54.71875 49.585938 54.535156 49.402344 C 54.351562 49.21875 54.128906 49.125 53.867188 49.125 M 49.660156 52.890625 L 49.164062 53.1875 C 49.164062 53.1875 50.09375 54.773438 51.769531 54.773438 C 53.445312 54.773438 54.375 53.1875 54.375 53.1875 L 53.878906 52.890625 C 53.878906 52.890625 53.070312 54.195312 51.769531 54.195312 C 50.46875 54.195312 49.660156 52.890625 49.660156 52.890625 " fill-opacity="1" fill-rule="nonzero"/></g></svg>