<svg xmlns="http://www.w3.org/2000/svg" xmlns:xlink="http://www.w3.org/1999/xlink" width="300" zoomAndPan="magnify" viewBox="0 0 224.87999 74.999997" height="100" preserveAspectRatio="xMidYMid meet" version="1.0"><defs><g/><clipPath id="2aca210cb8"><path d="M 43.542969 41.574219 L 58.628906 41.574219 L 58.628906 56.664062 L 43.542969 56.664062 Z M 43.542969 41.574219 " clip-rule="nonzero"/></clipPath><clipPath id="206d9b4a9b"><path d="M 51.085938 41.574219 C 46.917969 41.574219 43.542969 44.953125 43.542969 49.117188 C 43.542969 53.285156 46.917969 56.664062 51.085938 56.664062 C 55.25 56.664062 58.628906 53.285156 58.628906 49.117188 C 58.628906 44.953125 55.25 41.574219 51.085938 41.574219 Z M 51.085938 41.574219 " clip-rule="nonzero"/></clipPath><clipPath id="64874db4ab"><path d="M 42.886719 41.246094 L 58.628906 41.246094 L 58.628906 56.988281 L 42.886719 56.988281 Z M 42.886719 41.246094 " clip-rule="nonzero"/></clipPath></defs><g fill="#283340" fill-opacity="1"><g transform="translate(3.017911, 51.889835)"><g><path d="M 15.34375 0 C 13.238281 0.03125 11.164062 0.046875 9.125 0.046875 C 7.09375 0.046875 5.039062 0.03125 2.96875 0 L 2.96875 -32.984375 C 5.1875 -33.015625 7.285156 -33.03125 9.265625 -33.03125 C 11.242188 -33.03125 13.285156 -33.015625 15.390625 -32.984375 C 18.566406 -32.953125 21.328125 -32.253906 23.671875 -30.890625 C 26.015625 -29.523438 27.820312 -27.640625 29.09375 -25.234375 C 30.363281 -22.835938 31 -20.066406 31 -16.921875 C 31 -14.578125 30.707031 -12.390625 30.125 -10.359375 C 29.539062 -8.335938 28.625 -6.554688 27.375 -5.015625 C 26.132812 -3.472656 24.523438 -2.257812 22.546875 -1.375 C 20.566406 -0.488281 18.164062 -0.03125 15.34375 0 Z M 8.015625 -4.71875 C 9.210938 -4.71875 10.375 -4.71875 11.5 -4.71875 C 12.625 -4.71875 13.769531 -4.71875 14.9375 -4.71875 C 17.101562 -4.78125 18.890625 -5.15625 20.296875 -5.84375 C 21.703125 -6.539062 22.8125 -7.460938 23.625 -8.609375 C 24.4375 -9.765625 25.003906 -11.054688 25.328125 -12.484375 C 25.660156 -13.910156 25.828125 -15.390625 25.828125 -16.921875 C 25.828125 -19.347656 25.363281 -21.398438 24.4375 -23.078125 C 23.507812 -24.765625 22.234375 -26.054688 20.609375 -26.953125 C 18.992188 -27.859375 17.148438 -28.335938 15.078125 -28.390625 C 13.878906 -28.390625 12.703125 -28.390625 11.546875 -28.390625 C 10.390625 -28.390625 9.210938 -28.390625 8.015625 -28.390625 Z M 8.015625 -4.71875 "/></g></g></g><g fill="#283340" fill-opacity="1"><g transform="translate(36.306906, 51.889835)"><g/></g></g><g fill="#283340" fill-opacity="1"><g transform="translate(45.303044, 51.889835)"><g/></g></g><g fill="#283340" fill-opacity="1"><g transform="translate(54.299182, 51.889835)"><g/></g></g><g fill="#283340" fill-opacity="1"><g transform="translate(63.300346, 51.889835)"><g><path d="M 26.5 -32.984375 L 26.5 -28.171875 L 16.609375 -28.171875 L 16.609375 0 L 11.296875 0 L 11.296875 -28.171875 L 1.390625 -28.171875 L 1.390625 -32.984375 Z M 26.5 -32.984375 "/></g></g></g><g fill="#283340" fill-opacity="1"><g transform="translate(91.188393, 51.889835)"><g><path d="M 13.640625 -21.28125 L 12.59375 -16.875 C 12.03125 -17.019531 11.515625 -17.125 11.046875 -17.1875 C 10.578125 -17.25 10.101562 -17.28125 9.625 -17.28125 C 9.144531 -17.28125 8.695312 -17.253906 8.28125 -17.203125 C 7.863281 -17.160156 7.441406 -17.066406 7.015625 -16.921875 L 7.015625 0 L 2.4375 0 L 2.4375 -20.296875 C 3.425781 -20.773438 4.507812 -21.132812 5.6875 -21.375 C 6.875 -21.613281 8.113281 -21.734375 9.40625 -21.734375 C 10.007812 -21.734375 10.707031 -21.703125 11.5 -21.640625 C 12.289062 -21.585938 13.003906 -21.46875 13.640625 -21.28125 Z M 13.640625 -21.28125 "/></g></g></g><g fill="#283340" fill-opacity="1"><g transform="translate(106.032026, 51.889835)"><g><path d="M 3.234375 -30.0625 L 8.5 -30.0625 L 8.5 -24.9375 L 3.234375 -24.9375 Z M 8.421875 -21.15625 L 8.421875 0 L 4 0 L 4 -17.015625 L 1.671875 -17.015625 L 2.5625 -21.15625 Z M 8.421875 -21.15625 "/></g></g></g><g fill="#283340" fill-opacity="1"><g transform="translate(117.41215, 51.889835)"><g><path d="M 13.5 -21.6875 C 15.71875 -21.6875 17.644531 -21.226562 19.28125 -20.3125 C 20.914062 -19.394531 22.164062 -18.101562 23.03125 -16.4375 C 23.90625 -14.78125 24.34375 -12.828125 24.34375 -10.578125 C 24.34375 -8.597656 23.90625 -6.757812 23.03125 -5.0625 C 22.164062 -3.363281 20.921875 -2 19.296875 -0.96875 C 17.679688 0.0625 15.75 0.578125 13.5 0.578125 C 12.6875 0.578125 11.828125 0.472656 10.921875 0.265625 C 10.023438 0.0546875 9.21875 -0.25 8.5 -0.65625 C 7.78125 -1.0625 7.269531 -1.53125 6.96875 -2.0625 L 7.0625 -0.140625 L 7.0625 9.90625 L 2.515625 9.90625 L 2.515625 -21.15625 L 7.25 -21.15625 L 7.25 -20.703125 L 7.15625 -18.90625 C 7.664062 -19.707031 8.539062 -20.367188 9.78125 -20.890625 C 11.03125 -21.421875 12.269531 -21.6875 13.5 -21.6875 Z M 13.453125 -3.828125 C 15.285156 -3.828125 16.78125 -4.46875 17.9375 -5.75 C 19.09375 -7.039062 19.671875 -8.648438 19.671875 -10.578125 C 19.671875 -12.492188 19.09375 -14.085938 17.9375 -15.359375 C 16.78125 -16.640625 15.285156 -17.28125 13.453125 -17.28125 C 12.160156 -17.28125 11.023438 -16.976562 10.046875 -16.375 C 9.078125 -15.78125 8.320312 -14.976562 7.78125 -13.96875 C 7.238281 -12.96875 6.96875 -11.835938 6.96875 -10.578125 C 6.96875 -9.347656 7.238281 -8.222656 7.78125 -7.203125 C 8.320312 -6.179688 9.078125 -5.363281 10.046875 -4.75 C 11.023438 -4.132812 12.160156 -3.828125 13.453125 -3.828125 Z M 13.453125 -3.828125 "/></g></g></g><g fill="#283340" fill-opacity="1"><g transform="translate(143.635906, 51.889835)"><g><path d="M 12.921875 0.765625 C 10.671875 0.765625 8.703125 0.285156 7.015625 -0.671875 C 5.335938 -1.628906 4.039062 -2.957031 3.125 -4.65625 C 2.207031 -6.351562 1.75 -8.296875 1.75 -10.484375 C 1.75 -12.703125 2.222656 -14.648438 3.171875 -16.328125 C 4.117188 -18.015625 5.421875 -19.328125 7.078125 -20.265625 C 8.742188 -21.210938 10.691406 -21.6875 12.921875 -21.6875 C 15.109375 -21.6875 17.039062 -21.210938 18.71875 -20.265625 C 20.394531 -19.328125 21.695312 -18.015625 22.625 -16.328125 C 23.5625 -14.648438 24.03125 -12.703125 24.03125 -10.484375 C 24.03125 -8.296875 23.570312 -6.351562 22.65625 -4.65625 C 21.738281 -2.957031 20.445312 -1.628906 18.78125 -0.671875 C 17.125 0.285156 15.171875 0.765625 12.921875 0.765625 Z M 12.921875 -17.375 C 11.742188 -17.375 10.648438 -17.101562 9.640625 -16.5625 C 8.640625 -16.019531 7.832031 -15.226562 7.21875 -14.1875 C 6.601562 -13.15625 6.296875 -11.921875 6.296875 -10.484375 C 6.296875 -8.265625 6.929688 -6.5625 8.203125 -5.375 C 9.484375 -4.1875 11.054688 -3.59375 12.921875 -3.59375 C 14.742188 -3.59375 16.300781 -4.1875 17.59375 -5.375 C 18.882812 -6.5625 19.53125 -8.265625 19.53125 -10.484375 C 19.53125 -11.921875 19.222656 -13.15625 18.609375 -14.1875 C 17.992188 -15.226562 17.179688 -16.019531 16.171875 -16.5625 C 15.171875 -17.101562 14.085938 -17.375 12.921875 -17.375 Z M 12.921875 -17.375 "/></g></g></g><g fill="#283340" fill-opacity="1"><g transform="translate(169.409858, 51.889835)"><g><path d="M 12.734375 0.578125 C 10.515625 0.578125 8.59375 0.113281 6.96875 -0.8125 C 5.351562 -1.738281 4.101562 -3.035156 3.21875 -4.703125 C 2.332031 -6.367188 1.890625 -8.3125 1.890625 -10.53125 C 1.890625 -12.507812 2.332031 -14.34375 3.21875 -16.03125 C 4.101562 -17.726562 5.351562 -19.09375 6.96875 -20.125 C 8.59375 -21.164062 10.515625 -21.6875 12.734375 -21.6875 C 13.546875 -21.6875 14.398438 -21.582031 15.296875 -21.375 C 16.203125 -21.164062 17.019531 -20.863281 17.75 -20.46875 C 18.488281 -20.082031 19.007812 -19.617188 19.3125 -19.078125 L 19.21875 -21.015625 L 19.21875 -32.984375 L 23.71875 -32.984375 L 23.71875 0 L 19.03125 0 L 19.03125 -0.40625 L 19.078125 -2.203125 C 18.597656 -1.390625 17.726562 -0.722656 16.46875 -0.203125 C 15.207031 0.316406 13.960938 0.578125 12.734375 0.578125 Z M 12.828125 -17.28125 C 10.960938 -17.28125 9.457031 -16.640625 8.3125 -15.359375 C 7.175781 -14.085938 6.609375 -12.476562 6.609375 -10.53125 C 6.609375 -8.613281 7.175781 -7.015625 8.3125 -5.734375 C 9.457031 -4.460938 10.960938 -3.828125 12.828125 -3.828125 C 14.085938 -3.828125 15.203125 -4.125 16.171875 -4.71875 C 17.148438 -5.320312 17.914062 -6.132812 18.46875 -7.15625 C 19.03125 -8.175781 19.3125 -9.300781 19.3125 -10.53125 C 19.3125 -11.789062 19.03125 -12.929688 18.46875 -13.953125 C 17.914062 -14.972656 17.148438 -15.78125 16.171875 -16.375 C 15.203125 -16.976562 14.085938 -17.28125 12.828125 -17.28125 Z M 12.828125 -17.28125 "/></g></g></g><g fill="#283340" fill-opacity="1"><g transform="translate(195.633615, 51.889835)"><g><path d="M 12.921875 0.765625 C 10.671875 0.765625 8.703125 0.285156 7.015625 -0.671875 C 5.335938 -1.628906 4.039062 -2.957031 3.125 -4.65625 C 2.207031 -6.351562 1.75 -8.296875 1.75 -10.484375 C 1.75 -12.703125 2.222656 -14.648438 3.171875 -16.328125 C 4.117188 -18.015625 5.421875 -19.328125 7.078125 -20.265625 C 8.742188 -21.210938 10.691406 -21.6875 12.921875 -21.6875 C 15.109375 -21.6875 17.039062 -21.210938 18.71875 -20.265625 C 20.394531 -19.328125 21.695312 -18.015625 22.625 -16.328125 C 23.5625 -14.648438 24.03125 -12.703125 24.03125 -10.484375 C 24.03125 -8.296875 23.570312 -6.351562 22.65625 -4.65625 C 21.738281 -2.957031 20.445312 -1.628906 18.78125 -0.671875 C 17.125 0.285156 15.171875 0.765625 12.921875 0.765625 Z M 12.921875 -17.375 C 11.742188 -17.375 10.648438 -17.101562 9.640625 -16.5625 C 8.640625 -16.019531 7.832031 -15.226562 7.21875 -14.1875 C 6.601562 -13.15625 6.296875 -11.921875 6.296875 -10.484375 C 6.296875 -8.265625 6.929688 -6.5625 8.203125 -5.375 C 9.484375 -4.1875 11.054688 -3.59375 12.921875 -3.59375 C 14.742188 -3.59375 16.300781 -4.1875 17.59375 -5.375 C 18.882812 -6.5625 19.53125 -8.265625 19.53125 -10.484375 C 19.53125 -11.921875 19.222656 -13.15625 18.609375 -14.1875 C 17.992188 -15.226562 17.179688 -16.019531 16.171875 -16.5625 C 15.171875 -17.101562 14.085938 -17.375 12.921875 -17.375 Z M 12.921875 -17.375 "/></g></g></g><g clip-path="url(#2aca210cb8)"><g clip-path="url(#206d9b4a9b)"><path fill="#ff7948" d="M 43.542969 41.574219 L 58.628906 41.574219 L 58.628906 56.664062 L 43.542969 56.664062 Z M 43.542969 41.574219 " fill-opacity="1" fill-rule="nonzero"/></g></g><g clip-path="url(#64874db4ab)"><path fill="#283340" d="M 50.757812 41.246094 C 46.414062 41.246094 42.886719 44.777344 42.886719 49.117188 C 42.886719 53.460938 46.414062 56.988281 50.757812 56.988281 C 55.101562 56.988281 58.628906 53.460938 58.628906 49.117188 C 58.628906 44.777344 55.101562 41.246094 50.757812 41.246094 M 50.757812 41.964844 C 54.714844 41.964844 57.914062 45.164062 57.914062 49.117188 C 57.914062 53.074219 54.714844 56.273438 50.757812 56.273438 C 46.800781 56.273438 43.601562 53.074219 43.601562 49.117188 C 43.601562 45.160156 46.800781 41.964844 50.757812 41.964844 M 48.164062 47.152344 C 48.011719 47.152344 47.863281 47.179688 47.71875 47.238281 C 47.578125 47.296875 47.449219 47.382812 47.34375 47.492188 C 47.234375 47.601562 47.148438 47.726562 47.089844 47.867188 C 47.03125 48.011719 47 48.160156 47 48.3125 C 47 48.46875 47.03125 48.617188 47.089844 48.757812 C 47.148438 48.902344 47.234375 49.027344 47.34375 49.136719 C 47.449219 49.246094 47.578125 49.328125 47.71875 49.386719 C 47.863281 49.445312 48.011719 49.476562 48.164062 49.476562 C 48.320312 49.476562 48.464844 49.445312 48.609375 49.386719 C 48.75 49.328125 48.878906 49.246094 48.988281 49.136719 C 49.09375 49.027344 49.179688 48.902344 49.238281 48.757812 C 49.296875 48.617188 49.328125 48.46875 49.328125 48.3125 C 49.328125 48.160156 49.296875 48.011719 49.238281 47.867188 C 49.179688 47.726562 49.09375 47.601562 48.988281 47.492188 C 48.878906 47.382812 48.75 47.296875 48.609375 47.238281 C 48.464844 47.179688 48.320312 47.152344 48.164062 47.152344 M 53.351562 47.152344 C 53.199219 47.152344 53.050781 47.179688 52.90625 47.238281 C 52.765625 47.296875 52.640625 47.382812 52.53125 47.492188 C 52.421875 47.601562 52.335938 47.726562 52.277344 47.867188 C 52.21875 48.011719 52.1875 48.160156 52.1875 48.3125 C 52.1875 48.46875 52.21875 48.617188 52.277344 48.757812 C 52.335938 48.902344 52.421875 49.027344 52.53125 49.136719 C 52.640625 49.246094 52.765625 49.328125 52.90625 49.386719 C 53.050781 49.445312 53.199219 49.476562 53.351562 49.476562 C 53.507812 49.476562 53.65625 49.445312 53.796875 49.386719 C 53.9375 49.328125 54.066406 49.246094 54.175781 49.136719 C 54.28125 49.027344 54.367188 48.902344 54.425781 48.757812 C 54.484375 48.617188 54.515625 48.46875 54.515625 48.3125 C 54.515625 48.160156 54.484375 48.011719 54.425781 47.867188 C 54.367188 47.726562 54.28125 47.601562 54.175781 47.492188 C 54.066406 47.382812 53.9375 47.296875 53.796875 47.238281 C 53.65625 47.179688 53.507812 47.152344 53.351562 47.152344 M 48.152344 51.800781 L 47.539062 52.171875 C 47.539062 52.171875 48.6875 54.128906 50.757812 54.128906 C 52.828125 54.128906 53.976562 52.171875 53.976562 52.171875 L 53.367188 51.800781 C 53.367188 51.800781 52.367188 53.414062 50.757812 53.414062 C 49.152344 53.414062 48.152344 51.800781 48.152344 51.800781 " fill-opacity="1" fill-rule="nonzero"/></g></svg>